<svg xmlns="http://www.w3.org/2000/svg" viewBox="0 0 1200 520" width="1200" height="520"><style>@import url("https://fonts.googleapis.com/css2?family=Fraunces:opsz,wght@9..144,600&amp;display=swap");.wm{font-family:"Fraunces",Georgia,serif;font-weight:600;letter-spacing:-0.01em;font-variation-settings:"SOFT" 100}.lb{font-family:system-ui,-apple-system,sans-serif}</style><rect width="1200" height="520" fill="#0A1633"/><g transform="translate(160.43,110.00) scale(3.1915)"><line x1="20" y1="92" x2="20" y2="54" stroke="#2D6CDF" stroke-width="6.5" stroke-linecap="round"/><line x1="80" y1="92" x2="80" y2="54" stroke="#7E22CE" stroke-width="6.5" stroke-linecap="round"/><circle cx="50" cy="18" r="16" fill="none" stroke="#FF3EA5" stroke-width="3" opacity=".35"/><line x1="20" y1="54" x2="50" y2="18" stroke="#FF3EA5" stroke-width="3" stroke-linecap="round"/><line x1="40" y1="54" x2="50" y2="18" stroke="#FF3EA5" stroke-width="3" stroke-linecap="round"/><line x1="60" y1="54" x2="50" y2="18" stroke="#FF3EA5" stroke-width="3" stroke-linecap="round"/><line x1="80" y1="54" x2="50" y2="18" stroke="#FF3EA5" stroke-width="3" stroke-linecap="round"/><path d="M20 54 A10 12 0 0 1 40 54 A10 12 0 0 1 60 54 A10 12 0 0 1 80 54" fill="none" stroke="#FF3EA5" stroke-width="6" stroke-linecap="round"/><circle cx="20" cy="54" r="7" fill="#2D6CDF"/><circle cx="80" cy="54" r="7" fill="#7E22CE"/><circle cx="40" cy="54" r="6.5" fill="#FF3EA5"/><circle cx="60" cy="54" r="6.5" fill="#FF3EA5"/><circle cx="50" cy="18" r="10" fill="#FF3EA5"/></g><text class="wm" x="480" y="312" font-size="150" fill="#FFF7ED">Lumbre<tspan fill="#FF3EA5">.</tspan></text></svg>